<?xml version="1.0" encoding="UTF-8"?>
<svg width="22px" height="22px" viewBox="0 0 22 22" version="1.1" xmlns="http://www.w3.org/2000/svg" xmlns:xlink="http://www.w3.org/1999/xlink">
    <!-- Generator: Sketch 51.2 (57519) - http://www.bohemiancoding.com/sketch -->
    <title>Fill 1</title>
    <desc>Created with Sketch.</desc>
    <defs></defs>
    <g id="Symbols" stroke="none" stroke-width="1" fill="none" fill-rule="evenodd">
        <g id="Molecules-/-Comment-/-Locked" transform="translate(-5.000000, -5.000000)" fill="#C2C2C2" stroke="#C2C2C2">
            <g id="comments">
                <g id="Comment-Icon">
                    <path d="M6,14.5655135 C6,17.9086103 8.14682372,20.9137166 11.5032162,22.3027188 L11.5032162,25.0807232 C11.5013701,25.4704774 11.7488411,25.8186308 12.1227979,25.953364 C12.2280613,25.9877279 12.3379436,26.0030996 12.4487455,25.9994835 C12.7312933,25.9976748 12.9990672,25.8719778 13.1763539,25.6567472 L15.3037947,23.110243 C15.5401771,23.1219986 15.8024196,23.1283301 16.0267937,23.1283301 C21.5255191,23.1283301 26,19.284961 26,14.5628166 C26,9.8406721 21.5567216,6.00008103 16.1052726,6.00008103 C10.5338124,6 6,9.84336907 6,14.5655135 Z M15.117334,22.172472 C14.9622081,22.1607164 14.8116917,22.2240179 14.7129075,22.3415761 L12.448814,25.0716599 L12.448814,21.989927 C12.448814,21.7955038 12.3241602,21.6209618 12.1367185,21.554961 C8.98337838,20.3631045 6.93630752,17.6194548 6.93630752,14.5611035 C6.93630752,10.4193281 11.1320936,6.92159138 16.0961223,6.92159138 C21.0251663,6.92159138 25.0335013,10.3480283 25.0335013,14.5611035 C25.0335013,18.7741763 20.9937275,22.2052455 16.0159887,22.2052455 C15.73415,22.2050256 15.3749671,22.191462 15.117334,22.172472 Z" id="Fill-1"></path>
                </g>
            </g>
        </g>
    </g>
</svg>