<?xml version="1.0" encoding="UTF-8"?>
<svg width="23px" height="22px" viewBox="0 0 23 22" version="1.1" xmlns="http://www.w3.org/2000/svg" xmlns:xlink="http://www.w3.org/1999/xlink">
    <!-- Generator: Sketch 51.2 (57519) - http://www.bohemiancoding.com/sketch -->
    <title>Shape</title>
    <desc>Created with Sketch.</desc>
    <defs></defs>
    <g id="Symbols" stroke="none" stroke-width="1" fill="none" fill-rule="evenodd">
        <g id="Molecules-/-Favorite-/-Default" transform="translate(-5.000000, -4.000000)" fill="#3C3A5D" stroke="#3C3A5D" stroke-width="0.6">
            <g id="faves">
                <g id="Fave-Icon">
                    <path d="M20.0200297,11.0731351 C21.4178754,11.1743541 22.7903058,11.2249635 24.1881515,11.3261824 C25.1539358,11.3767919 26.5771969,11.4274014 26.9330122,12.5155047 C27.2888275,13.6036081 26.1451355,14.4892737 25.433505,15.0965872 C24.3406438,15.9822527 23.2731979,16.8426135 22.2057521,17.7282791 C22.536152,19.0694298 22.8919673,20.4105804 23.2477826,21.7517311 C23.4765209,22.6627014 23.8577516,24.0291568 22.942798,24.7123845 C22.0024291,25.3703075 20.8333218,24.5858609 20.0200297,24.0797663 C18.825507,23.3459291 17.681815,22.5867872 16.5127077,21.85295 C15.318185,22.5867872 14.1490776,23.3712338 12.9799703,24.105071 C12.1666782,24.6111656 10.9721555,25.4209169 10.057202,24.7376892 C9.11683302,24.0544615 9.52347905,22.6880061 9.75221744,21.7770358 C10.1080327,20.4105804 10.463848,19.0947345 10.8196633,17.7282791 C9.75221744,16.8426135 8.65935624,15.9822527 7.56649503,15.0965872 C6.85486448,14.4892737 5.71117252,13.6036081 6.0669878,12.5155047 C6.42280307,11.4274014 7.84606418,11.3767919 8.8118485,11.3261824 C10.2096942,11.2249635 11.5821246,11.1743541 12.9799703,11.0731351 C13.5136932,9.78259393 13.9965854,8.49205271 14.5048929,7.22681622 C14.8607082,6.34115068 15.3436004,5 16.5127077,5 C17.6563996,5 18.1392918,6.34115068 18.4951071,7.22681622 C19.02883,8.49205271 19.5117222,9.78259393 20.0200297,11.0731351 Z M19.232153,12.1612385 C27.9496273,12.8444662 27.5683966,11.6551439 20.9095679,17.3234034 C22.942798,25.7751832 23.9339977,25.041346 16.5127077,20.5117994 C9.01517151,25.0919555 10.0317866,25.8257926 12.0904321,17.3234034 C5.406188,11.6551439 5.02495734,12.8444662 13.767847,12.1612385 C17.1226767,4.13963919 15.9027386,4.13963919 19.232153,12.1612385 Z" id="Shape"></path>
                </g>
            </g>
        </g>
    </g>
</svg>