<svg width="25" height="24" viewBox="0 0 25 24" fill="none" xmlns="http://www.w3.org/2000/svg">
<path d="M17.8095 13.7891C17.8095 13.0948 18.3724 12.5319 19.0667 12.5319C19.761 12.5319 20.3238 13.0948 20.3238 13.7891V20.0569C20.3238 21.9193 18.9098 23.4748 17.1024 23.4748H7.41191C5.60459 23.4748 4.19048 21.9193 4.19048 20.0569V13.7891C4.19048 13.0948 4.75333 12.5319 5.44763 12.5319C6.14193 12.5319 6.70477 13.0948 6.70477 13.7891V20.0569C6.70477 20.5813 7.04947 20.9605 7.41191 20.9605H17.1024C17.4649 20.9605 17.8095 20.5814 17.8095 20.0569V13.7891ZM11.9851 2.58443L2.10566 11.6214C1.59336 12.0901 0.798166 12.0546 0.329549 11.5423C-0.139068 11.03 -0.103656 10.2349 0.408644 9.76624L10.3774 0.647508L10.5189 0.535634C11.4533 -0.0999516 12.8359 -0.253047 13.9954 0.535634C14.7657 1.05953 19.2423 5.18582 24.1191 9.77867C24.6245 10.2547 24.6483 11.0503 24.1723 11.5557C23.6963 12.0612 22.9007 12.085 22.3953 11.609C17.8379 7.31695 13.1724 3.01659 12.5814 2.61458C12.4005 2.49159 12.1467 2.50487 11.9851 2.58443Z" fill="black" style="mix-blend-mode:color"/>
</svg>
