<svg xmlns="http://www.w3.org/2000/svg" width="26" height="25" viewBox="0 0 26 25">
  <path fill-rule="evenzero" d="M29.552381,25.5238095 C29.552381,24.8295087 30.115223,24.2666667 30.8095238,24.2666667 C31.5038246,24.2666667 32.0666667,24.8295087 32.0666667,25.5238095 L32.0666667,31.7916667 C32.0666667,33.6540803 30.6526271,35.2095238 28.8452381,35.2095238 L19.1547619,35.2095238 C17.3474395,35.2095238 15.9333333,33.6540548 15.9333333,31.7916667 L15.9333333,25.5238095 C15.9333333,24.8295087 16.4961754,24.2666667 17.1904762,24.2666667 C17.884777,24.2666667 18.447619,24.8295087 18.447619,25.5238095 L18.447619,31.7916667 C18.447619,32.3160812 18.7923177,32.6952381 19.1547619,32.6952381 L28.8452381,32.6952381 C29.20773,32.6952381 29.552381,32.316122 29.552381,31.7916667 L29.552381,25.5238095 Z M23.7279219,14.3191602 L13.8485065,23.3561731 C13.3362063,23.8247903 12.5410155,23.7893782 12.0723983,23.2770779 C11.6037811,22.7647777 11.6391932,21.969587 12.1514935,21.5009698 L22.1202435,12.3822397 L22.2617145,12.2703661 C23.1961449,11.6347805 24.5787757,11.4816849 25.7382855,12.2703661 C26.5085107,12.7942616 30.9851957,16.9205474 35.8619013,21.5134024 C36.3673352,21.9894173 36.391184,22.7850388 35.915169,23.2904727 C35.4391541,23.7959066 34.6435326,23.8197554 34.1380987,23.3437405 C29.5807765,19.051679 24.9152393,14.7513229 24.3242145,14.3493167 C24.1433877,14.226321 23.8895807,14.2395986 23.7279219,14.3191602 Z" transform="translate(-11 -11)"/>
</svg>
