<svg xmlns="http://www.w3.org/2000/svg" width="11" height="16" viewBox="0 0 11 16">
  <path fill="#747580" fill-rule="evenodd" d="M11.9532384,2.00100978 C11.4647295,2.01500846 10.9942208,2.23218797 10.7342161,2.56335674 L5.23411522,9.36271542 C4.94310988,9.72388135 4.92160949,10.2126353 5.17961422,10.5893997 C5.43761895,10.9657642 5.96312859,11.2141408 6.50013843,11.2125409 L11.7347344,11.2125409 L7.73466107,16.1620741 C7.30865326,16.6916242 7.52565724,17.4839494 8.18766938,17.8247173 C8.84968152,18.1650852 9.84019968,17.9915015 10.2657075,17.4619515 L15.7658083,10.6625928 C16.0568137,10.3018268 16.0783141,9.81267298 15.8208093,9.43630848 C15.5628046,9.05954401 15.037295,8.81116744 14.5002851,8.81276729 L9.26568914,8.81276729 L13.2657625,3.86323413 C13.5702681,3.49766861 13.5917685,2.99291622 13.3222635,2.61015232 C13.0527586,2.22738842 12.5022485,1.98221155 11.9532384,2.00100978" transform="translate(-5 -2)"/>
</svg>
