<svg xmlns="http://www.w3.org/2000/svg" width="7" height="10" viewBox="0 0 7 10">
  <path fill="#FFF" fill-rule="evenodd" d="M11.4247881,6.00063111 C11.1139188,6.00938028 10.8145042,6.14511748 10.6490466,6.35209796 L7.14898241,10.6016971 C6.9637972,10.8274258 6.95011513,11.132897 7.11429996,11.3683748 C7.27848479,11.6036026 7.61290001,11.758838 7.95463355,11.7578381 L11.2857401,11.7578381 L8.74023886,14.8512963 C8.46914298,15.1822651 8.60723642,15.6774684 9.02851688,15.8904483 C9.44979733,16.1031782 10.0801271,15.9946885 10.3509048,15.6637197 L13.8509689,11.4141205 C14.0361542,11.1886418 14.0498362,10.8829206 13.8859696,10.6476928 C13.7217848,10.412215 13.3873695,10.2569796 13.045636,10.2579796 L9.71452946,10.2579796 L12.2600307,7.16452133 C12.453807,6.93604288 12.467489,6.62057264 12.2959859,6.3813452 C12.1244827,6.14211776 11.7741581,5.98888222 11.4247881,6.00063111" transform="translate(-7 -6)"/>
</svg>
