<?xml version="1.0" encoding="UTF-8"?>
<svg width="26px" height="26px" viewBox="0 0 26 26" version="1.1" xmlns="http://www.w3.org/2000/svg" xmlns:xlink="http://www.w3.org/1999/xlink">
    <!-- Generator: Sketch 51.2 (57519) - http://www.bohemiancoding.com/sketch -->
    <title>icon-plus</title>
    <desc>Created with Sketch.</desc>
    <defs></defs>
    <g id="Symbols" stroke="none" stroke-width="1" fill="none" fill-rule="evenodd">
        <g id="Atoms-/-Buttons-/-FAB-/-New-Candor" transform="translate(-15.000000, -15.000000)" fill="#EF5B72" stroke="#EF5B72" stroke-width="1.16666667">
            <g id="add">
                <path d="M26.4184676,26.4184676 L26.4184676,17.9148657 C26.4184676,17.0414095 27.1265438,16.3333333 28,16.3333333 C28.8734562,16.3333333 29.5815324,17.0414095 29.5815324,17.9148657 L29.5815324,26.4184676 L38.0851343,26.4184676 C38.9585905,26.4184676 39.6666667,27.1265438 39.6666667,28 C39.6666667,28.8734562 38.9585905,29.5815324 38.0851343,29.5815324 L29.5815324,29.5815324 L29.5815324,38.0851343 C29.5815324,38.9585905 28.8734562,39.6666667 28,39.6666667 C27.1265438,39.6666667 26.4184676,38.9585905 26.4184676,38.0851343 L26.4184676,29.5815324 L17.9148657,29.5815324 C17.0414095,29.5815324 16.3333333,28.8734562 16.3333333,28 C16.3333333,27.1265438 17.0414095,26.4184676 17.9148657,26.4184676 L26.4184676,26.4184676 Z" id="icon-plus"></path>
            </g>
        </g>
    </g>
</svg>