<?xml version="1.0" encoding="UTF-8"?>
<svg width="22px" height="22px" viewBox="0 0 22 22" version="1.1" xmlns="http://www.w3.org/2000/svg" xmlns:xlink="http://www.w3.org/1999/xlink">
    <!-- Generator: Sketch 51.2 (57519) - http://www.bohemiancoding.com/sketch -->
    <title>icn-search</title>
    <desc>Created with Sketch.</desc>
    <defs></defs>
    <g id="Symbols" stroke="none" stroke-width="1" fill="none" fill-rule="evenodd">
        <g id="Atoms-/-Nav-/-Dashboard-/-Search-Active" transform="translate(-13.000000, -12.000000)" fill="#EF5B72">
            <g id="icn-search">
                <path d="M22.2810195,27.8133852 C18.6716711,27.8133852 15.7498897,24.8913987 15.7498897,21.2817969 C15.7498897,17.6721952 18.6716711,14.7502087 22.2810195,14.7502087 C25.8903679,14.7502087 28.8121493,17.6721952 28.8121493,21.2817969 C28.8121493,24.8913987 25.8903679,27.8133852 22.2810195,27.8133852 M34.5880393,31.6626944 L29.7394069,26.7820884 C30.8745981,25.2691081 31.562165,23.3443905 31.562165,21.2817969 C31.562165,16.159215 27.403242,12 22.2810195,12 C17.158797,12 13,16.159215 13,21.2817969 C13,26.4043789 17.158797,30.5634679 22.2810195,30.5634679 C24.3434683,30.5634679 26.2680508,29.8759787 27.7809249,28.7405818 L32.6272889,33.5877901 C33.1768636,34.1374033 34.0361962,34.1374033 34.586275,33.5877901 C35.1376139,33.0739691 35.1376139,32.1784058 34.5880393,31.6626944"></path>
            </g>
        </g>
    </g>
</svg>