<svg xmlns="http://www.w3.org/2000/svg" width="18" height="18" viewBox="0 0 18 18">
  <path fill="#EF5B72" fill-rule="evenodd" stroke="#EF5B72" d="M10,18 C7.87808,18 5.8432,17.15688 4.3432,15.6568 C2.8432,14.15672 2,12.12176 2,10 C2,7.87824 2.84312,5.8432 4.3432,4.3432 C5.84328,2.8432 7.87824,2 10,2 C12.12176,2 14.1568,2.84312 15.6568,4.3432 C17.1568,5.84328 18,7.87824 18,10 C18,12.12176 17.15688,14.1568 15.6568,15.6568 C14.15672,17.1568 12.12176,18 10,18 Z M10,3.33312 C8.23184,3.33312 6.53632,4.035616 5.28624,5.28624 C4.035616,6.53624 3.33312,8.23184 3.33312,10 C3.33312,11.76816 4.035616,13.46368 5.28624,14.71376 C6.53624,15.964384 8.23184,16.6668802 10,16.6668802 C11.76816,16.6668802 13.46368,15.964384 14.71376,14.71376 C15.964384,13.46376 16.66688,11.76816 16.66688,10 C16.66688,8.23184 15.964384,6.53632 14.71376,5.28624 C13.46376,4.035616 11.76816,3.33312 10,3.33312 Z M11.48688,12.46624 L9.53376,10.50688 L9.5331344,10.5075056 C9.3956336,10.37188 9.3225104,10.1843856 9.3331344,9.9912496 L9.3331344,6.6669296 C9.3331344,6.2988016 9.6318864,6.0000496 10.0000144,6.0000496 C10.3681424,6.0000496 10.6668944,6.2988016 10.6668944,6.6669296 L10.6668944,9.6875696 L12.4668944,11.4875696 C12.7368944,11.7581936 12.7368944,12.1969456 12.4662704,12.4669456 C12.1956464,12.7375696 11.7568944,12.7375696 11.4868944,12.4669456 L11.48688,12.46624 Z" transform="translate(-1 -1)"/>
</svg>
